<svg width="16" height="16" viewBox="0 0 16 16" fill="none" xmlns="http://www.w3.org/2000/svg">
<circle cx="8" cy="8" r="8" fill="white"/>
<path d="M6.85795 6.54545C6.81534 6.18561 6.64252 5.90625 6.33949 5.70739C6.03646 5.50852 5.66477 5.40909 5.22443 5.40909C4.90246 5.40909 4.62074 5.46117 4.37926 5.56534C4.14015 5.66951 3.95313 5.81274 3.81818 5.99503C3.68561 6.17732 3.61932 6.38447 3.61932 6.61648C3.61932 6.81061 3.66548 6.97751 3.75781 7.11719C3.85251 7.2545 3.97325 7.36932 4.12003 7.46165C4.26681 7.55161 4.42069 7.62618 4.58168 7.68537C4.74266 7.74219 4.89062 7.78835 5.02557 7.82386L5.7642 8.02273C5.9536 8.07244 6.1643 8.1411 6.39631 8.22869C6.63068 8.31629 6.8544 8.43584 7.06747 8.58736C7.28291 8.73651 7.46046 8.92827 7.60014 9.16264C7.73982 9.39702 7.80966 9.68466 7.80966 10.0256C7.80966 10.4186 7.70668 10.7737 7.50071 11.0909C7.29711 11.4081 6.99882 11.6603 6.60582 11.8473C6.2152 12.0343 5.74053 12.1278 5.18182 12.1278C4.66098 12.1278 4.20999 12.0438 3.82884 11.8757C3.45005 11.7076 3.15175 11.4732 2.93395 11.1726C2.71851 10.8719 2.59659 10.5227 2.56818 10.125H3.47727C3.50095 10.3996 3.59328 10.6269 3.75426 10.8068C3.91761 10.9844 4.12358 11.117 4.37216 11.2045C4.62311 11.2898 4.89299 11.3324 5.18182 11.3324C5.51799 11.3324 5.81984 11.2779 6.08736 11.169C6.35488 11.0578 6.56676 10.9039 6.72301 10.7074C6.87926 10.5085 6.95739 10.2765 6.95739 10.0114C6.95739 9.76989 6.88991 9.57339 6.75497 9.42188C6.62003 9.27036 6.44247 9.14725 6.2223 9.05256C6.00213 8.95786 5.7642 8.875 5.50852 8.80398L4.61364 8.5483C4.04545 8.38494 3.59564 8.15175 3.2642 7.84872C2.93277 7.54569 2.76705 7.14915 2.76705 6.65909C2.76705 6.25189 2.87713 5.89678 3.0973 5.59375C3.31984 5.28835 3.61813 5.05161 3.99219 4.88352C4.36861 4.71307 4.78883 4.62784 5.25284 4.62784C5.72159 4.62784 6.13826 4.71188 6.50284 4.87997C6.86742 5.04569 7.15625 5.27296 7.36932 5.56179C7.58475 5.85062 7.69839 6.1785 7.71023 6.54545H6.85795ZM9.98207 8.71875V12H9.144V4.72727H9.98207V7.39773H10.0531C10.1809 7.116 10.3727 6.89228 10.6284 6.72656C10.8864 6.55848 11.2297 6.47443 11.6582 6.47443C12.0299 6.47443 12.3554 6.54901 12.6348 6.69815C12.9141 6.84493 13.1307 7.07102 13.2846 7.37642C13.4409 7.67945 13.519 8.06534 13.519 8.53409V12H12.6809V8.59091C12.6809 8.15767 12.5685 7.82268 12.3436 7.58594C12.121 7.34683 11.8121 7.22727 11.4167 7.22727C11.1421 7.22727 10.8959 7.28527 10.6781 7.40128C10.4627 7.51728 10.2922 7.68655 10.1667 7.90909C10.0436 8.13163 9.98207 8.40152 9.98207 8.71875Z" fill="black"/>
</svg>
