<svg width="16" height="16" viewBox="0 0 16 16" fill="none" xmlns="http://www.w3.org/2000/svg">
<circle cx="8" cy="8" r="8" fill="#EE1111" fill-opacity="0.69"/>
<path d="M6.57741 6.81889C6.54901 6.53243 6.42708 6.3099 6.21165 6.15128C5.99621 5.99266 5.70384 5.91335 5.33452 5.91335C5.08357 5.91335 4.87169 5.94886 4.69886 6.01989C4.52604 6.08854 4.39347 6.18442 4.30114 6.30753C4.21117 6.43063 4.16619 6.57031 4.16619 6.72656C4.16146 6.85677 4.18868 6.97041 4.24787 7.06747C4.30942 7.16454 4.39347 7.24858 4.5 7.3196C4.60653 7.38826 4.72964 7.44863 4.86932 7.50071C5.009 7.55043 5.15814 7.59304 5.31676 7.62855L5.97017 7.7848C6.28741 7.85582 6.5786 7.95052 6.84375 8.06889C7.1089 8.18726 7.33854 8.33286 7.53267 8.50568C7.7268 8.6785 7.87713 8.8821 7.98366 9.11648C8.09257 9.35085 8.1482 9.61955 8.15057 9.92259C8.1482 10.3677 8.03456 10.7536 7.80966 11.0803C7.58712 11.4046 7.26515 11.6567 6.84375 11.8366C6.42472 12.0142 5.91927 12.103 5.32741 12.103C4.74029 12.103 4.22893 12.013 3.79332 11.8331C3.36009 11.6532 3.02154 11.3868 2.7777 11.0341C2.53622 10.679 2.40956 10.2398 2.39773 9.71662H3.88565C3.90223 9.96046 3.97206 10.1641 4.09517 10.3274C4.22064 10.4884 4.38755 10.6103 4.59588 10.6932C4.80658 10.7737 5.04451 10.8139 5.30966 10.8139C5.57008 10.8139 5.79616 10.776 5.98793 10.7003C6.18205 10.6245 6.33239 10.5192 6.43892 10.3842C6.54545 10.2493 6.59872 10.0942 6.59872 9.91903C6.59872 9.75568 6.55019 9.61837 6.45312 9.5071C6.35843 9.39583 6.21875 9.30114 6.03409 9.22301C5.8518 9.14489 5.62808 9.07386 5.36293 9.00994L4.57102 8.81108C3.95786 8.66193 3.47372 8.42874 3.11861 8.11151C2.76349 7.79427 2.58712 7.36695 2.58949 6.82955C2.58712 6.3892 2.70431 6.0045 2.94105 5.67543C3.18016 5.34635 3.50805 5.08949 3.92472 4.90483C4.34138 4.72017 4.81487 4.62784 5.34517 4.62784C5.88494 4.62784 6.35606 4.72017 6.75852 4.90483C7.16335 5.08949 7.47822 5.34635 7.70312 5.67543C7.92803 6.0045 8.04403 6.38565 8.05114 6.81889H6.57741ZM10.6692 8.84659V12H9.15643V4.72727H10.6266V7.50781H10.6905C10.8136 7.18584 11.0125 6.93371 11.2871 6.75142C11.5617 6.56676 11.9062 6.47443 12.3205 6.47443C12.6993 6.47443 13.0295 6.55729 13.3113 6.72301C13.5953 6.88636 13.8155 7.12192 13.9718 7.42969C14.1304 7.73509 14.2085 8.10085 14.2061 8.52699V12H12.6934V8.79688C12.6957 8.4607 12.6105 8.1991 12.4377 8.01207C12.2672 7.82505 12.0281 7.73153 11.7203 7.73153C11.5144 7.73153 11.3321 7.77533 11.1735 7.86293C11.0172 7.95052 10.8941 8.07836 10.8042 8.24645C10.7166 8.41217 10.6716 8.61222 10.6692 8.84659Z" fill="black"/>
</svg>
